<?xml version="1.0" encoding="UTF-8"?>
<svg xmlns="http://www.w3.org/2000/svg" xmlns:xlink="http://www.w3.org/1999/xlink" width="30px" height="30px" viewBox="0 0 30 30" version="1.1">
<g id="surface1">
<path style=" stroke:none;fill-rule:nonzero;fill:rgb(100%,100%,100%);fill-opacity:1;" d="M 0 24.375 C 0 25.414062 0.835938 26.25 1.875 26.25 L 5.078125 26.25 C 5.800781 27.90625 7.453125 29.0625 9.375 29.0625 C 11.296875 29.0625 12.949219 27.90625 13.671875 26.25 L 28.125 26.25 C 29.164062 26.25 30 25.414062 30 24.375 C 30 23.335938 29.164062 22.5 28.125 22.5 L 13.671875 22.5 C 12.949219 20.84375 11.296875 19.6875 9.375 19.6875 C 7.453125 19.6875 5.800781 20.84375 5.078125 22.5 L 1.875 22.5 C 0.835938 22.5 0 23.335938 0 24.375 Z M 7.5 24.375 C 7.5 23.339844 8.339844 22.5 9.375 22.5 C 10.410156 22.5 11.25 23.339844 11.25 24.375 C 11.25 25.410156 10.410156 26.25 9.375 26.25 C 8.339844 26.25 7.5 25.410156 7.5 24.375 Z M 18.75 15 C 18.75 13.964844 19.589844 13.125 20.625 13.125 C 21.660156 13.125 22.5 13.964844 22.5 15 C 22.5 16.035156 21.660156 16.875 20.625 16.875 C 19.589844 16.875 18.75 16.035156 18.75 15 Z M 20.625 10.3125 C 18.703125 10.3125 17.050781 11.46875 16.328125 13.125 L 1.875 13.125 C 0.835938 13.125 0 13.960938 0 15 C 0 16.039062 0.835938 16.875 1.875 16.875 L 16.328125 16.875 C 17.050781 18.53125 18.703125 19.6875 20.625 19.6875 C 22.546875 19.6875 24.199219 18.53125 24.921875 16.875 L 28.125 16.875 C 29.164062 16.875 30 16.039062 30 15 C 30 13.960938 29.164062 13.125 28.125 13.125 L 24.921875 13.125 C 24.199219 11.46875 22.546875 10.3125 20.625 10.3125 Z M 11.25 7.5 C 10.214844 7.5 9.375 6.660156 9.375 5.625 C 9.375 4.589844 10.214844 3.75 11.25 3.75 C 12.285156 3.75 13.125 4.589844 13.125 5.625 C 13.125 6.660156 12.285156 7.5 11.25 7.5 Z M 15.546875 3.75 C 14.824219 2.09375 13.171875 0.9375 11.25 0.9375 C 9.328125 0.9375 7.675781 2.09375 6.953125 3.75 L 1.875 3.75 C 0.835938 3.75 0 4.585938 0 5.625 C 0 6.664062 0.835938 7.5 1.875 7.5 L 6.953125 7.5 C 7.675781 9.15625 9.328125 10.3125 11.25 10.3125 C 13.171875 10.3125 14.824219 9.15625 15.546875 7.5 L 28.125 7.5 C 29.164062 7.5 30 6.664062 30 5.625 C 30 4.585938 29.164062 3.75 28.125 3.75 Z M 15.546875 3.75 "/>
</g>
</svg>
